<mxfile host="app.diagrams.net" modified="2023-05-22T15:23:39.992Z" agent="Mozilla/5.0 (Windows NT 10.0; Win64; x64) AppleWebKit/537.36 (KHTML, like Gecko) Chrome/113.0.0.0 Safari/537.36 Edg/113.0.1774.42" etag="ATsbRMYVLNaTYqHu5Agl" version="21.3.2" type="github">
  <diagram name="第 1 页" id="XQk2WVKKXpx08qQF4OFa">
    <mxGraphModel dx="1379" dy="796" grid="1" gridSize="10" guides="1" tooltips="1" connect="1" arrows="1" fold="1" page="1" pageScale="1" pageWidth="827" pageHeight="1169" math="0" shadow="0">
      <root>
        <mxCell id="0" />
        <mxCell id="1" parent="0" />
        <mxCell id="_RT_M6gS96k-C6BAZeCW-9" value="&lt;font style=&quot;font-size: 24px;&quot;&gt;a&lt;/font&gt;" style="ellipse;whiteSpace=wrap;html=1;aspect=fixed;strokeWidth=5;strokeColor=#10739e;shadow=0;opacity=80;snapToPoint=1;fixDash=0;metaEdit=0;backgroundOutline=0;fillColor=#b1ddf0;" parent="1" vertex="1">
          <mxGeometry x="210" y="180" width="80" height="80" as="geometry" />
        </mxCell>
        <mxCell id="_RT_M6gS96k-C6BAZeCW-10" value="&lt;font style=&quot;font-size: 24px;&quot;&gt;c&lt;/font&gt;" style="ellipse;whiteSpace=wrap;html=1;aspect=fixed;strokeWidth=5;strokeColor=#10739e;shadow=0;opacity=80;snapToPoint=1;fixDash=0;metaEdit=0;backgroundOutline=0;fillColor=#b1ddf0;" parent="1" vertex="1">
          <mxGeometry x="490" y="390" width="80" height="80" as="geometry" />
        </mxCell>
        <mxCell id="_RT_M6gS96k-C6BAZeCW-11" value="&lt;font style=&quot;font-size: 24px;&quot;&gt;d&lt;/font&gt;" style="ellipse;whiteSpace=wrap;html=1;aspect=fixed;strokeWidth=5;strokeColor=#10739e;shadow=0;opacity=80;snapToPoint=1;fixDash=0;metaEdit=0;backgroundOutline=0;fillColor=#b1ddf0;" parent="1" vertex="1">
          <mxGeometry x="210" y="390" width="80" height="80" as="geometry" />
        </mxCell>
        <mxCell id="_RT_M6gS96k-C6BAZeCW-12" value="&lt;font style=&quot;font-size: 24px;&quot;&gt;b&lt;/font&gt;" style="ellipse;whiteSpace=wrap;html=1;aspect=fixed;strokeWidth=5;strokeColor=#10739e;shadow=0;opacity=80;snapToPoint=1;fixDash=0;metaEdit=0;backgroundOutline=0;fillColor=#b1ddf0;" parent="1" vertex="1">
          <mxGeometry x="490" y="180" width="80" height="80" as="geometry" />
        </mxCell>
        <mxCell id="_RT_M6gS96k-C6BAZeCW-13" value="" style="endArrow=none;html=1;rounded=0;exitX=1;exitY=0.5;exitDx=0;exitDy=0;entryX=0;entryY=0.5;entryDx=0;entryDy=0;strokeWidth=5;strokeColor=#10739e;shadow=0;opacity=80;snapToPoint=1;fixDash=0;metaEdit=0;backgroundOutline=0;endFill=0;startArrow=none;startFill=0;fillColor=#b1ddf0;" parent="1" edge="1">
          <mxGeometry width="50" height="50" relative="1" as="geometry">
            <mxPoint x="288" y="210" as="sourcePoint" />
            <mxPoint x="488.0000000000002" y="210" as="targetPoint" />
            <Array as="points">
              <mxPoint x="348" y="210" />
            </Array>
          </mxGeometry>
        </mxCell>
        <mxCell id="_RT_M6gS96k-C6BAZeCW-14" value="" style="endArrow=none;html=1;rounded=0;entryX=0;entryY=1;entryDx=0;entryDy=0;strokeWidth=5;strokeColor=#10739e;shadow=0;opacity=80;snapToPoint=1;fixDash=0;metaEdit=0;backgroundOutline=0;endFill=0;fillColor=#b1ddf0;startArrow=none;startFill=0;" parent="1" edge="1">
          <mxGeometry width="50" height="50" relative="1" as="geometry">
            <mxPoint x="274.5" y="397" as="sourcePoint" />
            <mxPoint x="497.7157287525381" y="243.28427124746167" as="targetPoint" />
          </mxGeometry>
        </mxCell>
        <mxCell id="_RT_M6gS96k-C6BAZeCW-15" value="" style="endArrow=none;html=1;rounded=0;exitX=1;exitY=0.5;exitDx=0;exitDy=0;strokeWidth=5;strokeColor=#10739e;shadow=0;opacity=80;snapToPoint=1;fixDash=0;metaEdit=0;backgroundOutline=0;endFill=0;fillColor=#b1ddf0;startArrow=none;startFill=0;" parent="1" edge="1" target="_RT_M6gS96k-C6BAZeCW-10" source="_RT_M6gS96k-C6BAZeCW-11">
          <mxGeometry width="50" height="50" relative="1" as="geometry">
            <mxPoint x="287.2842712474619" y="240.2842712474619" as="sourcePoint" />
            <mxPoint x="510.8333333333335" y="394" as="targetPoint" />
          </mxGeometry>
        </mxCell>
        <mxCell id="_RT_M6gS96k-C6BAZeCW-16" value="" style="endArrow=none;html=1;rounded=0;exitX=0.5;exitY=1;exitDx=0;exitDy=0;entryX=0.5;entryY=0;entryDx=0;entryDy=0;strokeWidth=5;strokeColor=#10739e;shadow=0;opacity=80;snapToPoint=1;fixDash=0;metaEdit=0;backgroundOutline=0;endFill=0;startArrow=none;startFill=0;fillColor=#b1ddf0;" parent="1" edge="1">
          <mxGeometry width="50" height="50" relative="1" as="geometry">
            <mxPoint x="260" y="261" as="sourcePoint" />
            <mxPoint x="260" y="391" as="targetPoint" />
          </mxGeometry>
        </mxCell>
        <mxCell id="_RT_M6gS96k-C6BAZeCW-17" value="" style="endArrow=none;html=1;rounded=0;exitX=0.5;exitY=1;exitDx=0;exitDy=0;strokeWidth=5;strokeColor=#10739e;shadow=0;opacity=80;snapToPoint=1;fixDash=0;metaEdit=0;backgroundOutline=0;endFill=0;startArrow=none;startFill=0;fillColor=#b1ddf0;" parent="1" edge="1">
          <mxGeometry width="50" height="50" relative="1" as="geometry">
            <mxPoint x="540" y="260" as="sourcePoint" />
            <mxPoint x="540" y="390" as="targetPoint" />
          </mxGeometry>
        </mxCell>
        <mxCell id="_RT_M6gS96k-C6BAZeCW-18" value="&lt;font style=&quot;font-size: 24px;&quot;&gt;无向图G&lt;/font&gt;" style="rounded=0;whiteSpace=wrap;html=1;fillColor=#b1ddf0;strokeColor=#10739e;" parent="1" vertex="1">
          <mxGeometry x="320" y="480" width="150" height="60" as="geometry" />
        </mxCell>
      </root>
    </mxGraphModel>
  </diagram>
</mxfile>
